<svg xmlns="http://www.w3.org/2000/svg" version="1.1" xmlns:xlink="http://www.w3.org/1999/xlink" xmlns:svgjs="http://svgjs.com/svgjs" width="1440" height="560" preserveAspectRatio="none" viewBox="0 0 1440 560"><g mask="url(&quot;#SvgjsMask1375&quot;)" fill="none"><rect width="1440" height="560" x="0" y="0" fill="#0e2a47"></rect><path d="M63.86 301.15L102.83 323.65L102.83 368.65L63.86 391.15L24.89 368.65L24.89 323.65zM63.86 436.15L102.83 458.65L102.83 503.65L63.86 526.15L24.89 503.65L24.89 458.65zM141.81 31.15L180.78 53.65L180.78 98.65L141.81 121.15L102.83 98.65L102.83 53.65zM102.83 233.65L141.81 256.15L141.81 301.15L102.83 323.65L63.86 301.15L63.86 256.15zM141.81 301.15L180.78 323.65L180.78 368.65L141.81 391.15L102.83 368.65L102.83 323.65zM102.83 368.65L141.81 391.15L141.81 436.15L102.83 458.65L63.86 436.15L63.86 391.15zM141.81 436.15L180.78 458.65L180.78 503.65L141.81 526.15L102.83 503.65L102.83 458.65zM102.83 503.65L141.81 526.15L141.81 571.15L102.83 593.65L63.86 571.15L63.86 526.15zM180.78 -36.35L219.75 -13.85L219.75 31.15L180.78 53.65L141.81 31.15L141.81 -13.85zM297.7 31.15L336.67 53.65L336.67 98.65L297.7 121.15L258.72 98.65L258.72 53.65zM297.7 301.15L336.67 323.65L336.67 368.65L297.7 391.15L258.72 368.65L258.72 323.65zM258.72 503.65L297.7 526.15L297.7 571.15L258.72 593.65L219.75 571.15L219.75 526.15zM375.64 31.15L414.61 53.65L414.61 98.65L375.64 121.15L336.67 98.65L336.67 53.65zM336.67 98.65L375.64 121.15L375.64 166.15L336.67 188.65L297.7 166.15L297.7 121.15zM375.64 166.15L414.61 188.65L414.61 233.65L375.64 256.15L336.67 233.65L336.67 188.65zM336.67 233.65L375.64 256.15L375.64 301.15L336.67 323.65L297.7 301.15L297.7 256.15zM336.67 368.65L375.64 391.15L375.64 436.15L336.67 458.65L297.7 436.15L297.7 391.15zM336.67 503.65L375.64 526.15L375.64 571.15L336.67 593.65L297.7 571.15L297.7 526.15zM414.61 -36.35L453.58 -13.85L453.58 31.15L414.61 53.65L375.64 31.15L375.64 -13.85zM453.58 31.15L492.56 53.65L492.56 98.65L453.58 121.15L414.61 98.65L414.61 53.65zM414.61 233.65L453.58 256.15L453.58 301.15L414.61 323.65L375.64 301.15L375.64 256.15zM453.58 436.15L492.56 458.65L492.56 503.65L453.58 526.15L414.61 503.65L414.61 458.65zM492.56 -36.35L531.53 -13.85L531.53 31.15L492.56 53.65L453.58 31.15L453.58 -13.85zM531.53 31.15L570.5 53.65L570.5 98.65L531.53 121.15L492.56 98.65L492.56 53.65zM531.53 166.15L570.5 188.65L570.5 233.65L531.53 256.15L492.56 233.65L492.56 188.65zM492.56 503.65L531.53 526.15L531.53 571.15L492.56 593.65L453.58 571.15L453.58 526.15zM570.5 -36.35L609.47 -13.85L609.47 31.15L570.5 53.65L531.53 31.15L531.53 -13.85zM609.47 166.15L648.45 188.65L648.45 233.65L609.47 256.15L570.5 233.65L570.5 188.65zM648.45 -36.35L687.42 -13.85L687.42 31.15L648.45 53.65L609.47 31.15L609.47 -13.85zM648.45 98.65L687.42 121.15L687.42 166.15L648.45 188.65L609.47 166.15L609.47 121.15zM687.42 166.15L726.39 188.65L726.39 233.65L687.42 256.15L648.45 233.65L648.45 188.65zM648.45 233.65L687.42 256.15L687.42 301.15L648.45 323.65L609.47 301.15L609.47 256.15zM648.45 503.65L687.42 526.15L687.42 571.15L648.45 593.65L609.47 571.15L609.47 526.15zM765.36 31.15L804.34 53.65L804.34 98.65L765.36 121.15L726.39 98.65L726.39 53.65zM765.36 166.15L804.34 188.65L804.34 233.65L765.36 256.15L726.39 233.65L726.39 188.65zM843.31 31.15L882.28 53.65L882.28 98.65L843.31 121.15L804.34 98.65L804.34 53.65zM843.31 166.15L882.28 188.65L882.28 233.65L843.31 256.15L804.34 233.65L804.34 188.65zM804.34 233.65L843.31 256.15L843.31 301.15L804.34 323.65L765.36 301.15L765.36 256.15zM882.28 -36.35L921.25 -13.85L921.25 31.15L882.28 53.65L843.31 31.15L843.31 -13.85zM921.25 166.15L960.22 188.65L960.22 233.65L921.25 256.15L882.28 233.65L882.28 188.65zM882.28 368.65L921.25 391.15L921.25 436.15L882.28 458.65L843.31 436.15L843.31 391.15zM960.22 233.65L999.2 256.15L999.2 301.15L960.22 323.65L921.25 301.15L921.25 256.15zM960.22 503.65L999.2 526.15L999.2 571.15L960.22 593.65L921.25 571.15L921.25 526.15zM1038.17 -36.35L1077.14 -13.85L1077.14 31.15L1038.17 53.65L999.2 31.15L999.2 -13.85zM1077.14 31.15L1116.11 53.65L1116.11 98.65L1077.14 121.15L1038.17 98.65L1038.17 53.65zM1038.17 98.65L1077.14 121.15L1077.14 166.15L1038.17 188.65L999.2 166.15L999.2 121.15zM1077.14 301.15L1116.11 323.65L1116.11 368.65L1077.14 391.15L1038.17 368.65L1038.17 323.65zM1038.17 368.65L1077.14 391.15L1077.14 436.15L1038.17 458.65L999.2 436.15L999.2 391.15zM1077.14 436.15L1116.11 458.65L1116.11 503.65L1077.14 526.15L1038.17 503.65L1038.17 458.65zM1155.09 31.15L1194.06 53.65L1194.06 98.65L1155.09 121.15L1116.11 98.65L1116.11 53.65zM1116.11 98.65L1155.09 121.15L1155.09 166.15L1116.11 188.65L1077.14 166.15L1077.14 121.15zM1155.09 301.15L1194.06 323.65L1194.06 368.65L1155.09 391.15L1116.11 368.65L1116.11 323.65zM1194.06 -36.35L1233.03 -13.85L1233.03 31.15L1194.06 53.65L1155.09 31.15L1155.09 -13.85zM1194.06 98.65L1233.03 121.15L1233.03 166.15L1194.06 188.65L1155.09 166.15L1155.09 121.15zM1310.97 31.15L1349.95 53.65L1349.95 98.65L1310.97 121.15L1272 98.65L1272 53.65zM1272 98.65L1310.97 121.15L1310.97 166.15L1272 188.65L1233.03 166.15L1233.03 121.15zM1272 233.65L1310.97 256.15L1310.97 301.15L1272 323.65L1233.03 301.15L1233.03 256.15zM1310.97 436.15L1349.95 458.65L1349.95 503.65L1310.97 526.15L1272 503.65L1272 458.65zM1349.95 233.65L1388.92 256.15L1388.92 301.15L1349.95 323.65L1310.97 301.15L1310.97 256.15zM1388.92 301.15L1427.89 323.65L1427.89 368.65L1388.92 391.15L1349.95 368.65L1349.95 323.65zM1349.95 368.65L1388.92 391.15L1388.92 436.15L1349.95 458.65L1310.97 436.15L1310.97 391.15zM1427.89 -36.35L1466.86 -13.85L1466.86 31.15L1427.89 53.65L1388.92 31.15L1388.92 -13.85zM1466.86 31.15L1505.84 53.65L1505.84 98.65L1466.86 121.15L1427.89 98.65L1427.89 53.65zM1466.86 301.15L1505.84 323.65L1505.84 368.65L1466.86 391.15L1427.89 368.65L1427.89 323.65z" stroke="#03305d" stroke-width="2"></path><path d="M59.36 301.15 a4.5 4.5 0 1 0 9 0 a4.5 4.5 0 1 0 -9 0zM98.33 323.65 a4.5 4.5 0 1 0 9 0 a4.5 4.5 0 1 0 -9 0zM98.33 368.65 a4.5 4.5 0 1 0 9 0 a4.5 4.5 0 1 0 -9 0zM59.36 391.15 a4.5 4.5 0 1 0 9 0 a4.5 4.5 0 1 0 -9 0zM20.39 368.65 a4.5 4.5 0 1 0 9 0 a4.5 4.5 0 1 0 -9 0zM20.39 323.65 a4.5 4.5 0 1 0 9 0 a4.5 4.5 0 1 0 -9 0zM59.36 436.15 a4.5 4.5 0 1 0 9 0 a4.5 4.5 0 1 0 -9 0zM98.33 458.65 a4.5 4.5 0 1 0 9 0 a4.5 4.5 0 1 0 -9 0zM98.33 503.65 a4.5 4.5 0 1 0 9 0 a4.5 4.5 0 1 0 -9 0zM59.36 526.15 a4.5 4.5 0 1 0 9 0 a4.5 4.5 0 1 0 -9 0zM20.39 503.65 a4.5 4.5 0 1 0 9 0 a4.5 4.5 0 1 0 -9 0zM20.39 458.65 a4.5 4.5 0 1 0 9 0 a4.5 4.5 0 1 0 -9 0zM137.31 31.15 a4.5 4.5 0 1 0 9 0 a4.5 4.5 0 1 0 -9 0zM176.28 53.65 a4.5 4.5 0 1 0 9 0 a4.5 4.5 0 1 0 -9 0zM176.28 98.65 a4.5 4.5 0 1 0 9 0 a4.5 4.5 0 1 0 -9 0zM137.31 121.15 a4.5 4.5 0 1 0 9 0 a4.5 4.5 0 1 0 -9 0zM98.33 98.65 a4.5 4.5 0 1 0 9 0 a4.5 4.5 0 1 0 -9 0zM98.33 53.65 a4.5 4.5 0 1 0 9 0 a4.5 4.5 0 1 0 -9 0zM98.33 233.65 a4.5 4.5 0 1 0 9 0 a4.5 4.5 0 1 0 -9 0zM137.31 256.15 a4.5 4.5 0 1 0 9 0 a4.5 4.5 0 1 0 -9 0zM137.31 301.15 a4.5 4.5 0 1 0 9 0 a4.5 4.5 0 1 0 -9 0zM59.36 256.15 a4.5 4.5 0 1 0 9 0 a4.5 4.5 0 1 0 -9 0zM176.28 323.65 a4.5 4.5 0 1 0 9 0 a4.5 4.5 0 1 0 -9 0zM176.28 368.65 a4.5 4.5 0 1 0 9 0 a4.5 4.5 0 1 0 -9 0zM137.31 391.15 a4.5 4.5 0 1 0 9 0 a4.5 4.5 0 1 0 -9 0zM137.31 436.15 a4.5 4.5 0 1 0 9 0 a4.5 4.5 0 1 0 -9 0zM176.28 458.65 a4.5 4.5 0 1 0 9 0 a4.5 4.5 0 1 0 -9 0zM176.28 503.65 a4.5 4.5 0 1 0 9 0 a4.5 4.5 0 1 0 -9 0zM137.31 526.15 a4.5 4.5 0 1 0 9 0 a4.5 4.5 0 1 0 -9 0zM137.31 571.15 a4.5 4.5 0 1 0 9 0 a4.5 4.5 0 1 0 -9 0zM98.33 593.65 a4.5 4.5 0 1 0 9 0 a4.5 4.5 0 1 0 -9 0zM59.36 571.15 a4.5 4.5 0 1 0 9 0 a4.5 4.5 0 1 0 -9 0zM176.28 -36.35 a4.5 4.5 0 1 0 9 0 a4.5 4.5 0 1 0 -9 0zM215.25 -13.85 a4.5 4.5 0 1 0 9 0 a4.5 4.5 0 1 0 -9 0zM215.25 31.15 a4.5 4.5 0 1 0 9 0 a4.5 4.5 0 1 0 -9 0zM137.31 -13.85 a4.5 4.5 0 1 0 9 0 a4.5 4.5 0 1 0 -9 0zM293.2 31.15 a4.5 4.5 0 1 0 9 0 a4.5 4.5 0 1 0 -9 0zM332.17 53.65 a4.5 4.5 0 1 0 9 0 a4.5 4.5 0 1 0 -9 0zM332.17 98.65 a4.5 4.5 0 1 0 9 0 a4.5 4.5 0 1 0 -9 0zM293.2 121.15 a4.5 4.5 0 1 0 9 0 a4.5 4.5 0 1 0 -9 0zM254.22 98.65 a4.5 4.5 0 1 0 9 0 a4.5 4.5 0 1 0 -9 0zM254.22 53.65 a4.5 4.5 0 1 0 9 0 a4.5 4.5 0 1 0 -9 0zM293.2 301.15 a4.5 4.5 0 1 0 9 0 a4.5 4.5 0 1 0 -9 0zM332.17 323.65 a4.5 4.5 0 1 0 9 0 a4.5 4.5 0 1 0 -9 0zM332.17 368.65 a4.5 4.5 0 1 0 9 0 a4.5 4.5 0 1 0 -9 0zM293.2 391.15 a4.5 4.5 0 1 0 9 0 a4.5 4.5 0 1 0 -9 0zM254.22 368.65 a4.5 4.5 0 1 0 9 0 a4.5 4.5 0 1 0 -9 0zM254.22 323.65 a4.5 4.5 0 1 0 9 0 a4.5 4.5 0 1 0 -9 0zM254.22 503.65 a4.5 4.5 0 1 0 9 0 a4.5 4.5 0 1 0 -9 0zM293.2 526.15 a4.5 4.5 0 1 0 9 0 a4.5 4.5 0 1 0 -9 0zM293.2 571.15 a4.5 4.5 0 1 0 9 0 a4.5 4.5 0 1 0 -9 0zM254.22 593.65 a4.5 4.5 0 1 0 9 0 a4.5 4.5 0 1 0 -9 0zM215.25 571.15 a4.5 4.5 0 1 0 9 0 a4.5 4.5 0 1 0 -9 0zM215.25 526.15 a4.5 4.5 0 1 0 9 0 a4.5 4.5 0 1 0 -9 0zM371.14 31.15 a4.5 4.5 0 1 0 9 0 a4.5 4.5 0 1 0 -9 0zM410.11 53.65 a4.5 4.5 0 1 0 9 0 a4.5 4.5 0 1 0 -9 0zM410.11 98.65 a4.5 4.5 0 1 0 9 0 a4.5 4.5 0 1 0 -9 0zM371.14 121.15 a4.5 4.5 0 1 0 9 0 a4.5 4.5 0 1 0 -9 0zM371.14 166.15 a4.5 4.5 0 1 0 9 0 a4.5 4.5 0 1 0 -9 0zM332.17 188.65 a4.5 4.5 0 1 0 9 0 a4.5 4.5 0 1 0 -9 0zM293.2 166.15 a4.5 4.5 0 1 0 9 0 a4.5 4.5 0 1 0 -9 0zM410.11 188.65 a4.5 4.5 0 1 0 9 0 a4.5 4.5 0 1 0 -9 0zM410.11 233.65 a4.5 4.5 0 1 0 9 0 a4.5 4.5 0 1 0 -9 0zM371.14 256.15 a4.5 4.5 0 1 0 9 0 a4.5 4.5 0 1 0 -9 0zM332.17 233.65 a4.5 4.5 0 1 0 9 0 a4.5 4.5 0 1 0 -9 0zM371.14 301.15 a4.5 4.5 0 1 0 9 0 a4.5 4.5 0 1 0 -9 0zM293.2 256.15 a4.5 4.5 0 1 0 9 0 a4.5 4.5 0 1 0 -9 0zM371.14 391.15 a4.5 4.5 0 1 0 9 0 a4.5 4.5 0 1 0 -9 0zM371.14 436.15 a4.5 4.5 0 1 0 9 0 a4.5 4.5 0 1 0 -9 0zM332.17 458.65 a4.5 4.5 0 1 0 9 0 a4.5 4.5 0 1 0 -9 0zM293.2 436.15 a4.5 4.5 0 1 0 9 0 a4.5 4.5 0 1 0 -9 0zM332.17 503.65 a4.5 4.5 0 1 0 9 0 a4.5 4.5 0 1 0 -9 0zM371.14 526.15 a4.5 4.5 0 1 0 9 0 a4.5 4.5 0 1 0 -9 0zM371.14 571.15 a4.5 4.5 0 1 0 9 0 a4.5 4.5 0 1 0 -9 0zM332.17 593.65 a4.5 4.5 0 1 0 9 0 a4.5 4.5 0 1 0 -9 0zM410.11 -36.35 a4.5 4.5 0 1 0 9 0 a4.5 4.5 0 1 0 -9 0zM449.08 -13.85 a4.5 4.5 0 1 0 9 0 a4.5 4.5 0 1 0 -9 0zM449.08 31.15 a4.5 4.5 0 1 0 9 0 a4.5 4.5 0 1 0 -9 0zM371.14 -13.85 a4.5 4.5 0 1 0 9 0 a4.5 4.5 0 1 0 -9 0zM488.06 53.65 a4.5 4.5 0 1 0 9 0 a4.5 4.5 0 1 0 -9 0zM488.06 98.65 a4.5 4.5 0 1 0 9 0 a4.5 4.5 0 1 0 -9 0zM449.08 121.15 a4.5 4.5 0 1 0 9 0 a4.5 4.5 0 1 0 -9 0zM449.08 256.15 a4.5 4.5 0 1 0 9 0 a4.5 4.5 0 1 0 -9 0zM449.08 301.15 a4.5 4.5 0 1 0 9 0 a4.5 4.5 0 1 0 -9 0zM410.11 323.65 a4.5 4.5 0 1 0 9 0 a4.5 4.5 0 1 0 -9 0zM449.08 436.15 a4.5 4.5 0 1 0 9 0 a4.5 4.5 0 1 0 -9 0zM488.06 458.65 a4.5 4.5 0 1 0 9 0 a4.5 4.5 0 1 0 -9 0zM488.06 503.65 a4.5 4.5 0 1 0 9 0 a4.5 4.5 0 1 0 -9 0zM449.08 526.15 a4.5 4.5 0 1 0 9 0 a4.5 4.5 0 1 0 -9 0zM410.11 503.65 a4.5 4.5 0 1 0 9 0 a4.5 4.5 0 1 0 -9 0zM410.11 458.65 a4.5 4.5 0 1 0 9 0 a4.5 4.5 0 1 0 -9 0zM488.06 -36.35 a4.5 4.5 0 1 0 9 0 a4.5 4.5 0 1 0 -9 0zM527.03 -13.85 a4.5 4.5 0 1 0 9 0 a4.5 4.5 0 1 0 -9 0zM527.03 31.15 a4.5 4.5 0 1 0 9 0 a4.5 4.5 0 1 0 -9 0zM566 53.65 a4.5 4.5 0 1 0 9 0 a4.5 4.5 0 1 0 -9 0zM566 98.65 a4.5 4.5 0 1 0 9 0 a4.5 4.5 0 1 0 -9 0zM527.03 121.15 a4.5 4.5 0 1 0 9 0 a4.5 4.5 0 1 0 -9 0zM527.03 166.15 a4.5 4.5 0 1 0 9 0 a4.5 4.5 0 1 0 -9 0zM566 188.65 a4.5 4.5 0 1 0 9 0 a4.5 4.5 0 1 0 -9 0zM566 233.65 a4.5 4.5 0 1 0 9 0 a4.5 4.5 0 1 0 -9 0zM527.03 256.15 a4.5 4.5 0 1 0 9 0 a4.5 4.5 0 1 0 -9 0zM488.06 233.65 a4.5 4.5 0 1 0 9 0 a4.5 4.5 0 1 0 -9 0zM488.06 188.65 a4.5 4.5 0 1 0 9 0 a4.5 4.5 0 1 0 -9 0zM527.03 526.15 a4.5 4.5 0 1 0 9 0 a4.5 4.5 0 1 0 -9 0zM527.03 571.15 a4.5 4.5 0 1 0 9 0 a4.5 4.5 0 1 0 -9 0zM488.06 593.65 a4.5 4.5 0 1 0 9 0 a4.5 4.5 0 1 0 -9 0zM449.08 571.15 a4.5 4.5 0 1 0 9 0 a4.5 4.5 0 1 0 -9 0zM566 -36.35 a4.5 4.5 0 1 0 9 0 a4.5 4.5 0 1 0 -9 0zM604.97 -13.85 a4.5 4.5 0 1 0 9 0 a4.5 4.5 0 1 0 -9 0zM604.97 31.15 a4.5 4.5 0 1 0 9 0 a4.5 4.5 0 1 0 -9 0zM604.97 166.15 a4.5 4.5 0 1 0 9 0 a4.5 4.5 0 1 0 -9 0zM643.95 188.65 a4.5 4.5 0 1 0 9 0 a4.5 4.5 0 1 0 -9 0zM643.95 233.65 a4.5 4.5 0 1 0 9 0 a4.5 4.5 0 1 0 -9 0zM604.97 256.15 a4.5 4.5 0 1 0 9 0 a4.5 4.5 0 1 0 -9 0zM643.95 -36.35 a4.5 4.5 0 1 0 9 0 a4.5 4.5 0 1 0 -9 0zM682.92 -13.85 a4.5 4.5 0 1 0 9 0 a4.5 4.5 0 1 0 -9 0zM682.92 31.15 a4.5 4.5 0 1 0 9 0 a4.5 4.5 0 1 0 -9 0zM643.95 53.65 a4.5 4.5 0 1 0 9 0 a4.5 4.5 0 1 0 -9 0zM643.95 98.65 a4.5 4.5 0 1 0 9 0 a4.5 4.5 0 1 0 -9 0zM682.92 121.15 a4.5 4.5 0 1 0 9 0 a4.5 4.5 0 1 0 -9 0zM682.92 166.15 a4.5 4.5 0 1 0 9 0 a4.5 4.5 0 1 0 -9 0zM604.97 121.15 a4.5 4.5 0 1 0 9 0 a4.5 4.5 0 1 0 -9 0zM721.89 188.65 a4.5 4.5 0 1 0 9 0 a4.5 4.5 0 1 0 -9 0zM721.89 233.65 a4.5 4.5 0 1 0 9 0 a4.5 4.5 0 1 0 -9 0zM682.92 256.15 a4.5 4.5 0 1 0 9 0 a4.5 4.5 0 1 0 -9 0zM682.92 301.15 a4.5 4.5 0 1 0 9 0 a4.5 4.5 0 1 0 -9 0zM643.95 323.65 a4.5 4.5 0 1 0 9 0 a4.5 4.5 0 1 0 -9 0zM604.97 301.15 a4.5 4.5 0 1 0 9 0 a4.5 4.5 0 1 0 -9 0zM643.95 503.65 a4.5 4.5 0 1 0 9 0 a4.5 4.5 0 1 0 -9 0zM682.92 526.15 a4.5 4.5 0 1 0 9 0 a4.5 4.5 0 1 0 -9 0zM682.92 571.15 a4.5 4.5 0 1 0 9 0 a4.5 4.5 0 1 0 -9 0zM643.95 593.65 a4.5 4.5 0 1 0 9 0 a4.5 4.5 0 1 0 -9 0zM604.97 571.15 a4.5 4.5 0 1 0 9 0 a4.5 4.5 0 1 0 -9 0zM604.97 526.15 a4.5 4.5 0 1 0 9 0 a4.5 4.5 0 1 0 -9 0zM760.86 31.15 a4.5 4.5 0 1 0 9 0 a4.5 4.5 0 1 0 -9 0zM799.84 53.65 a4.5 4.5 0 1 0 9 0 a4.5 4.5 0 1 0 -9 0zM799.84 98.65 a4.5 4.5 0 1 0 9 0 a4.5 4.5 0 1 0 -9 0zM760.86 121.15 a4.5 4.5 0 1 0 9 0 a4.5 4.5 0 1 0 -9 0zM721.89 98.65 a4.5 4.5 0 1 0 9 0 a4.5 4.5 0 1 0 -9 0zM721.89 53.65 a4.5 4.5 0 1 0 9 0 a4.5 4.5 0 1 0 -9 0zM760.86 166.15 a4.5 4.5 0 1 0 9 0 a4.5 4.5 0 1 0 -9 0zM799.84 188.65 a4.5 4.5 0 1 0 9 0 a4.5 4.5 0 1 0 -9 0zM799.84 233.65 a4.5 4.5 0 1 0 9 0 a4.5 4.5 0 1 0 -9 0zM760.86 256.15 a4.5 4.5 0 1 0 9 0 a4.5 4.5 0 1 0 -9 0zM838.81 31.15 a4.5 4.5 0 1 0 9 0 a4.5 4.5 0 1 0 -9 0zM877.78 53.65 a4.5 4.5 0 1 0 9 0 a4.5 4.5 0 1 0 -9 0zM877.78 98.65 a4.5 4.5 0 1 0 9 0 a4.5 4.5 0 1 0 -9 0zM838.81 121.15 a4.5 4.5 0 1 0 9 0 a4.5 4.5 0 1 0 -9 0zM838.81 166.15 a4.5 4.5 0 1 0 9 0 a4.5 4.5 0 1 0 -9 0zM877.78 188.65 a4.5 4.5 0 1 0 9 0 a4.5 4.5 0 1 0 -9 0zM877.78 233.65 a4.5 4.5 0 1 0 9 0 a4.5 4.5 0 1 0 -9 0zM838.81 256.15 a4.5 4.5 0 1 0 9 0 a4.5 4.5 0 1 0 -9 0zM838.81 301.15 a4.5 4.5 0 1 0 9 0 a4.5 4.5 0 1 0 -9 0zM799.84 323.65 a4.5 4.5 0 1 0 9 0 a4.5 4.5 0 1 0 -9 0zM760.86 301.15 a4.5 4.5 0 1 0 9 0 a4.5 4.5 0 1 0 -9 0zM877.78 -36.35 a4.5 4.5 0 1 0 9 0 a4.5 4.5 0 1 0 -9 0zM916.75 -13.85 a4.5 4.5 0 1 0 9 0 a4.5 4.5 0 1 0 -9 0zM916.75 31.15 a4.5 4.5 0 1 0 9 0 a4.5 4.5 0 1 0 -9 0zM838.81 -13.85 a4.5 4.5 0 1 0 9 0 a4.5 4.5 0 1 0 -9 0zM916.75 166.15 a4.5 4.5 0 1 0 9 0 a4.5 4.5 0 1 0 -9 0zM955.72 188.65 a4.5 4.5 0 1 0 9 0 a4.5 4.5 0 1 0 -9 0zM955.72 233.65 a4.5 4.5 0 1 0 9 0 a4.5 4.5 0 1 0 -9 0zM916.75 256.15 a4.5 4.5 0 1 0 9 0 a4.5 4.5 0 1 0 -9 0zM877.78 368.65 a4.5 4.5 0 1 0 9 0 a4.5 4.5 0 1 0 -9 0zM916.75 391.15 a4.5 4.5 0 1 0 9 0 a4.5 4.5 0 1 0 -9 0zM916.75 436.15 a4.5 4.5 0 1 0 9 0 a4.5 4.5 0 1 0 -9 0zM877.78 458.65 a4.5 4.5 0 1 0 9 0 a4.5 4.5 0 1 0 -9 0zM838.81 436.15 a4.5 4.5 0 1 0 9 0 a4.5 4.5 0 1 0 -9 0zM838.81 391.15 a4.5 4.5 0 1 0 9 0 a4.5 4.5 0 1 0 -9 0zM994.7 256.15 a4.5 4.5 0 1 0 9 0 a4.5 4.5 0 1 0 -9 0zM994.7 301.15 a4.5 4.5 0 1 0 9 0 a4.5 4.5 0 1 0 -9 0zM955.72 323.65 a4.5 4.5 0 1 0 9 0 a4.5 4.5 0 1 0 -9 0zM916.75 301.15 a4.5 4.5 0 1 0 9 0 a4.5 4.5 0 1 0 -9 0zM955.72 503.65 a4.5 4.5 0 1 0 9 0 a4.5 4.5 0 1 0 -9 0zM994.7 526.15 a4.5 4.5 0 1 0 9 0 a4.5 4.5 0 1 0 -9 0zM994.7 571.15 a4.5 4.5 0 1 0 9 0 a4.5 4.5 0 1 0 -9 0zM955.72 593.65 a4.5 4.5 0 1 0 9 0 a4.5 4.5 0 1 0 -9 0zM916.75 571.15 a4.5 4.5 0 1 0 9 0 a4.5 4.5 0 1 0 -9 0zM916.75 526.15 a4.5 4.5 0 1 0 9 0 a4.5 4.5 0 1 0 -9 0zM1033.67 -36.35 a4.5 4.5 0 1 0 9 0 a4.5 4.5 0 1 0 -9 0zM1072.64 -13.85 a4.5 4.5 0 1 0 9 0 a4.5 4.5 0 1 0 -9 0zM1072.64 31.15 a4.5 4.5 0 1 0 9 0 a4.5 4.5 0 1 0 -9 0zM1033.67 53.65 a4.5 4.5 0 1 0 9 0 a4.5 4.5 0 1 0 -9 0zM994.7 31.15 a4.5 4.5 0 1 0 9 0 a4.5 4.5 0 1 0 -9 0zM994.7 -13.85 a4.5 4.5 0 1 0 9 0 a4.5 4.5 0 1 0 -9 0zM1111.61 53.65 a4.5 4.5 0 1 0 9 0 a4.5 4.5 0 1 0 -9 0zM1111.61 98.65 a4.5 4.5 0 1 0 9 0 a4.5 4.5 0 1 0 -9 0zM1072.64 121.15 a4.5 4.5 0 1 0 9 0 a4.5 4.5 0 1 0 -9 0zM1033.67 98.65 a4.5 4.5 0 1 0 9 0 a4.5 4.5 0 1 0 -9 0zM1072.64 166.15 a4.5 4.5 0 1 0 9 0 a4.5 4.5 0 1 0 -9 0zM1033.67 188.65 a4.5 4.5 0 1 0 9 0 a4.5 4.5 0 1 0 -9 0zM994.7 166.15 a4.5 4.5 0 1 0 9 0 a4.5 4.5 0 1 0 -9 0zM994.7 121.15 a4.5 4.5 0 1 0 9 0 a4.5 4.5 0 1 0 -9 0zM1072.64 301.15 a4.5 4.5 0 1 0 9 0 a4.5 4.5 0 1 0 -9 0zM1111.61 323.65 a4.5 4.5 0 1 0 9 0 a4.5 4.5 0 1 0 -9 0zM1111.61 368.65 a4.5 4.5 0 1 0 9 0 a4.5 4.5 0 1 0 -9 0zM1072.64 391.15 a4.5 4.5 0 1 0 9 0 a4.5 4.5 0 1 0 -9 0zM1033.67 368.65 a4.5 4.5 0 1 0 9 0 a4.5 4.5 0 1 0 -9 0zM1033.67 323.65 a4.5 4.5 0 1 0 9 0 a4.5 4.5 0 1 0 -9 0zM1072.64 436.15 a4.5 4.5 0 1 0 9 0 a4.5 4.5 0 1 0 -9 0zM1033.67 458.65 a4.5 4.5 0 1 0 9 0 a4.5 4.5 0 1 0 -9 0zM994.7 436.15 a4.5 4.5 0 1 0 9 0 a4.5 4.5 0 1 0 -9 0zM994.7 391.15 a4.5 4.5 0 1 0 9 0 a4.5 4.5 0 1 0 -9 0zM1111.61 458.65 a4.5 4.5 0 1 0 9 0 a4.5 4.5 0 1 0 -9 0zM1111.61 503.65 a4.5 4.5 0 1 0 9 0 a4.5 4.5 0 1 0 -9 0zM1072.64 526.15 a4.5 4.5 0 1 0 9 0 a4.5 4.5 0 1 0 -9 0zM1033.67 503.65 a4.5 4.5 0 1 0 9 0 a4.5 4.5 0 1 0 -9 0zM1150.59 31.15 a4.5 4.5 0 1 0 9 0 a4.5 4.5 0 1 0 -9 0zM1189.56 53.65 a4.5 4.5 0 1 0 9 0 a4.5 4.5 0 1 0 -9 0zM1189.56 98.65 a4.5 4.5 0 1 0 9 0 a4.5 4.5 0 1 0 -9 0zM1150.59 121.15 a4.5 4.5 0 1 0 9 0 a4.5 4.5 0 1 0 -9 0zM1150.59 166.15 a4.5 4.5 0 1 0 9 0 a4.5 4.5 0 1 0 -9 0zM1111.61 188.65 a4.5 4.5 0 1 0 9 0 a4.5 4.5 0 1 0 -9 0zM1150.59 301.15 a4.5 4.5 0 1 0 9 0 a4.5 4.5 0 1 0 -9 0zM1189.56 323.65 a4.5 4.5 0 1 0 9 0 a4.5 4.5 0 1 0 -9 0zM1189.56 368.65 a4.5 4.5 0 1 0 9 0 a4.5 4.5 0 1 0 -9 0zM1150.59 391.15 a4.5 4.5 0 1 0 9 0 a4.5 4.5 0 1 0 -9 0zM1189.56 -36.35 a4.5 4.5 0 1 0 9 0 a4.5 4.5 0 1 0 -9 0zM1228.53 -13.85 a4.5 4.5 0 1 0 9 0 a4.5 4.5 0 1 0 -9 0zM1228.53 31.15 a4.5 4.5 0 1 0 9 0 a4.5 4.5 0 1 0 -9 0zM1150.59 -13.85 a4.5 4.5 0 1 0 9 0 a4.5 4.5 0 1 0 -9 0zM1228.53 121.15 a4.5 4.5 0 1 0 9 0 a4.5 4.5 0 1 0 -9 0zM1228.53 166.15 a4.5 4.5 0 1 0 9 0 a4.5 4.5 0 1 0 -9 0zM1189.56 188.65 a4.5 4.5 0 1 0 9 0 a4.5 4.5 0 1 0 -9 0zM1306.47 31.15 a4.5 4.5 0 1 0 9 0 a4.5 4.5 0 1 0 -9 0zM1345.45 53.65 a4.5 4.5 0 1 0 9 0 a4.5 4.5 0 1 0 -9 0zM1345.45 98.65 a4.5 4.5 0 1 0 9 0 a4.5 4.5 0 1 0 -9 0zM1306.47 121.15 a4.5 4.5 0 1 0 9 0 a4.5 4.5 0 1 0 -9 0zM1267.5 98.65 a4.5 4.5 0 1 0 9 0 a4.5 4.5 0 1 0 -9 0zM1267.5 53.65 a4.5 4.5 0 1 0 9 0 a4.5 4.5 0 1 0 -9 0zM1306.47 166.15 a4.5 4.5 0 1 0 9 0 a4.5 4.5 0 1 0 -9 0zM1267.5 188.65 a4.5 4.5 0 1 0 9 0 a4.5 4.5 0 1 0 -9 0zM1267.5 233.65 a4.5 4.5 0 1 0 9 0 a4.5 4.5 0 1 0 -9 0zM1306.47 256.15 a4.5 4.5 0 1 0 9 0 a4.5 4.5 0 1 0 -9 0zM1306.47 301.15 a4.5 4.5 0 1 0 9 0 a4.5 4.5 0 1 0 -9 0zM1267.5 323.65 a4.5 4.5 0 1 0 9 0 a4.5 4.5 0 1 0 -9 0zM1228.53 301.15 a4.5 4.5 0 1 0 9 0 a4.5 4.5 0 1 0 -9 0zM1228.53 256.15 a4.5 4.5 0 1 0 9 0 a4.5 4.5 0 1 0 -9 0zM1306.47 436.15 a4.5 4.5 0 1 0 9 0 a4.5 4.5 0 1 0 -9 0zM1345.45 458.65 a4.5 4.5 0 1 0 9 0 a4.5 4.5 0 1 0 -9 0zM1345.45 503.65 a4.5 4.5 0 1 0 9 0 a4.5 4.5 0 1 0 -9 0zM1306.47 526.15 a4.5 4.5 0 1 0 9 0 a4.5 4.5 0 1 0 -9 0zM1267.5 503.65 a4.5 4.5 0 1 0 9 0 a4.5 4.5 0 1 0 -9 0zM1267.5 458.65 a4.5 4.5 0 1 0 9 0 a4.5 4.5 0 1 0 -9 0zM1345.45 233.65 a4.5 4.5 0 1 0 9 0 a4.5 4.5 0 1 0 -9 0zM1384.42 256.15 a4.5 4.5 0 1 0 9 0 a4.5 4.5 0 1 0 -9 0zM1384.42 301.15 a4.5 4.5 0 1 0 9 0 a4.5 4.5 0 1 0 -9 0zM1345.45 323.65 a4.5 4.5 0 1 0 9 0 a4.5 4.5 0 1 0 -9 0zM1423.39 323.65 a4.5 4.5 0 1 0 9 0 a4.5 4.5 0 1 0 -9 0zM1423.39 368.65 a4.5 4.5 0 1 0 9 0 a4.5 4.5 0 1 0 -9 0zM1384.42 391.15 a4.5 4.5 0 1 0 9 0 a4.5 4.5 0 1 0 -9 0zM1345.45 368.65 a4.5 4.5 0 1 0 9 0 a4.5 4.5 0 1 0 -9 0zM1384.42 436.15 a4.5 4.5 0 1 0 9 0 a4.5 4.5 0 1 0 -9 0zM1306.47 391.15 a4.5 4.5 0 1 0 9 0 a4.5 4.5 0 1 0 -9 0zM1423.39 -36.35 a4.5 4.5 0 1 0 9 0 a4.5 4.5 0 1 0 -9 0zM1462.36 -13.85 a4.5 4.5 0 1 0 9 0 a4.5 4.5 0 1 0 -9 0zM1462.36 31.15 a4.5 4.5 0 1 0 9 0 a4.5 4.5 0 1 0 -9 0zM1423.39 53.65 a4.5 4.5 0 1 0 9 0 a4.5 4.5 0 1 0 -9 0zM1384.42 31.15 a4.5 4.5 0 1 0 9 0 a4.5 4.5 0 1 0 -9 0zM1384.42 -13.85 a4.5 4.5 0 1 0 9 0 a4.5 4.5 0 1 0 -9 0zM1501.34 53.65 a4.5 4.5 0 1 0 9 0 a4.5 4.5 0 1 0 -9 0zM1501.34 98.65 a4.5 4.5 0 1 0 9 0 a4.5 4.5 0 1 0 -9 0zM1462.36 121.15 a4.5 4.5 0 1 0 9 0 a4.5 4.5 0 1 0 -9 0zM1423.39 98.65 a4.5 4.5 0 1 0 9 0 a4.5 4.5 0 1 0 -9 0zM1462.36 301.15 a4.5 4.5 0 1 0 9 0 a4.5 4.5 0 1 0 -9 0zM1501.34 323.65 a4.5 4.5 0 1 0 9 0 a4.5 4.5 0 1 0 -9 0zM1501.34 368.65 a4.5 4.5 0 1 0 9 0 a4.5 4.5 0 1 0 -9 0zM1462.36 391.15 a4.5 4.5 0 1 0 9 0 a4.5 4.5 0 1 0 -9 0z" fill="#03305d"></path><path d="M167.83 589.07L296.87 663.57L296.87 812.57L167.83 887.07L38.79 812.57L38.79 663.57zM684 589.07L813.04 663.57L813.04 812.57L684 887.07L554.96 812.57L554.96 663.57zM1200.16 589.07L1329.2 663.57L1329.2 812.57L1200.16 887.07L1071.12 812.57L1071.12 663.57z" stroke="rgba(6, 80, 156, 0.93)" stroke-width="2"></path></g><defs><mask id="SvgjsMask1375"><rect width="1440" height="560" fill="#ffffff"></rect></mask></defs></svg>